<svg xmlns="http://www.w3.org/2000/svg" version="1.1" xmlns:xlink="http://www.w3.org/1999/xlink" width="500" height="500"><svg xmlns="http://www.w3.org/2000/svg" xmlns:xlink="http://www.w3.org/1999/xlink" width="500" height="500" viewBox="0 0 500 500"><path fill="#FCFAFC" d="M222.74 230.105C227.732 240.168 231.817 250.542 236.9 260.538C237.67 262.052 238.952 262.925 240.28 263.89C236.86 264.08 232.828 264.015 229.36 264.039C230.332 263.356 231.318 262.808 231.923 261.82C232.145 259.965 230.068 253.484 228.327 252.715C226.274 253.442 218.336 253.13 215.975 252.876C214.317 254.093 212.739 259.239 212.508 261.354C212.408 262.277 213.682 263.353 214.311 263.996L204.945 264.12L205.152 263.953C210.635 259.624 219.152 237.065 222.74 230.105ZM216.49 250.958C218.277 250.993 227.124 251.283 228.377 250.766C226.813 247.426 223.45 240.077 222.541 236.636C221.844 238.272 216.709 249.907 216.49 250.958Z"></path><path fill="#EBE7F0" d="M228.377 250.766C228.563 251.917 228.19 251.525 228.327 252.715C226.274 253.442 218.336 253.13 215.975 252.876C216.771 252.112 216.524 252.017 216.49 250.958C218.277 250.993 227.124 251.283 228.377 250.766Z"></path><path fill="#FCFAFC" d="M276.191 230.628C276.875 230.675 276.638 230.644 277.296 230.935C278.351 232.237 278.001 234.271 277.95 236.014C277.069 235.099 276.313 234.01 275.551 232.985C271.11 232.877 267.331 232.943 262.98 232.905C263.018 234.716 262.764 245.62 263.089 246.461C265.282 246.807 271.05 247.063 273.263 246.355C274.511 245.955 273.974 245.074 274.822 244.671C275.15 245.658 275.319 249.853 274.686 250.494C274.023 250.084 274.218 250.075 273.945 249.038C273.022 248.395 264.711 248.536 262.748 248.436C262.957 250.493 262.967 252.01 262.969 254.089C262.77 256.994 262.902 259.191 263.058 262.075L266.326 263.95C262.996 264.072 259.433 264.055 256.085 264.097L258.465 262.368C259.066 253.544 259.165 244.715 258.92 235.878C258.831 232.7 258.274 233.376 256.942 231.346C257.45 230.932 273.915 230.823 276.191 230.628Z"></path><path fill="#FCFAFC" d="M293.52 230.49C301.737 231.292 315.353 231.344 323.583 230.295C323.444 232.531 323.292 233.695 322.864 235.894L322.247 234.987C319.339 230.713 314.821 233.251 310.288 232.826C310.46 238.558 309.949 244.409 310.124 250.155C310.175 251.833 310.204 253.569 310.016 255.236C309.856 260.051 308.919 261.682 313.614 263.893C310.526 264.148 306.157 264.068 303.019 264.029C303.546 263.666 304.084 263.294 304.548 262.851C307.048 260.463 306.096 237.056 306.236 232.773C302.957 232.751 297.506 231.811 294.759 233.8C294.319 234.119 293.842 234.444 293.381 234.756C292.717 233.64 293.266 231.835 293.52 230.49Z"></path><path fill="#FCFAFC" d="M339.723 231.108C342.313 230.872 346.068 230.993 348.724 231.012C348.071 231.686 346.362 233.361 346.287 234.156C345.517 242.375 346.19 253.807 345.982 261.998C348.728 262.355 352.946 262.507 355.697 262.089C359.467 261.517 361.465 258.275 363.528 255.397C363.423 256.645 363.344 256.965 362.979 258.168C362.275 260.231 361.56 261.962 360.647 263.929C353.615 264.485 345.861 264.211 338.817 264.019L341.544 262.306C341.648 253.534 342.541 244.667 341.837 235.843C341.537 232.09 341.371 233.438 339.723 231.108Z"></path><path fill="#FCFAFC" d="M172.425 248.867C176.692 248.891 185.673 248.542 189.319 250.118L189.322 250.431C186.341 251.622 178.436 251.206 174.801 251.156C170.271 251.188 162.624 251.306 157.832 250.831C157.469 250.795 157.231 250.271 157.087 249.99L157.34 249.334C158.18 248.819 170.329 248.935 172.425 248.867Z"></path><path fill="#FCFAFC" d="M179.706 226.898L180.112 227.209C180.306 227.796 180.417 227.744 180.239 228.287C179.54 230.421 173.766 236.034 172.121 237.01C168.884 235.139 178.191 227.878 179.706 226.898Z"></path><path fill="#FCFAFC" d="M143.923 262.96C144.498 263.733 144.361 263.318 144.416 264.226C143.347 266.76 138.469 271.385 136.149 272.946L135.833 272.77C134.433 270.53 141.945 263.972 143.923 262.96Z"></path><path fill="#FCFAFC" d="M168.792 220.407C172.209 221.116 166.547 230.952 165.489 232.496L164.9 232.409L164.582 231.883C164.545 229.321 167.304 222.599 168.792 220.407Z"></path><path fill="#FCFAFC" d="M149.99 267.613C150.305 267.708 150.162 267.644 150.494 267.853C150.837 268.068 150.842 268.191 150.908 268.581C151.341 271.154 148.238 277.292 146.737 279.45C146.18 279.517 146.46 279.535 145.906 279.249C145.148 276.935 148.482 269.376 149.99 267.613Z"></path><path fill="#FCFAFC" d="M171.725 263.135C174.085 264.029 178.463 268.823 179.998 271.114C180.444 271.779 180.084 272.223 179.798 272.929C177.199 271.274 172.78 267.43 171.383 264.441C171.106 263.851 171.429 263.575 171.725 263.135Z"></path><path fill="#FCFAFC" d="M135.447 227.382C138.147 227.803 142.421 232.834 144.061 234.978C144.624 235.712 144.474 235.966 144.29 236.773C141.762 236.351 135.291 229.99 135.447 227.382Z"></path><path fill="#FCFAFC" d="M164.889 267.569C168.001 268.445 170.666 276.137 170.504 279.084C167.519 278.906 165.25 270.083 164.889 267.569Z"></path><path fill="#FCFAFC" d="M144.997 220.83C147.954 221.203 150.738 230.028 150.83 232.702C147.571 231.923 145.488 223.716 144.997 220.83Z"></path><path fill="#FCFAFC" d="M175.706 256.458C178.311 256.537 186.379 259.689 187.239 262.444C184.159 262.1 176.235 259.959 175.706 256.458Z"></path><path fill="#FCFAFC" d="M138.956 257.019C139.626 257 139.386 256.95 140.008 257.2L139.998 257.788C138.437 259.944 132.575 262.158 130.071 262.947C129.492 263.048 129.531 263.064 128.986 262.853L129.067 262.086C130.35 260.055 136.562 257.812 138.956 257.019Z"></path><path fill="#FCFAFC" d="M128.936 237.696C131.446 237.985 139.723 240.676 140.182 243.529C137.299 243.412 129.462 240.901 128.936 237.696Z"></path><path fill="#FCFAFC" d="M185.737 236.959C186.207 237.037 186.148 237.047 186.594 237.238L186.663 237.841C185.588 239.926 178.762 242.293 176.557 243.071C176.383 243.046 175.96 242.899 175.774 242.84L175.769 242.313C177.197 240.15 183.236 238.019 185.737 236.959Z"></path><path fill="#FCFAFC" d="M157.476 268.974C158.064 269.339 158.467 269.646 158.661 270.356C159.263 272.561 159.332 279.187 158.43 281.088C157.394 280.281 157.292 280.061 157.047 278.699C156.695 276.74 156.431 270.457 157.476 268.974Z"></path><path fill="#EBE7F0" d="M127.663 249.098C129.878 249.032 137.64 248.457 138.546 250.565L137.899 250.99C135.759 251.018 128.656 251.752 127.217 250.384C127.085 249.539 127.027 249.969 127.663 249.098Z"></path><path fill="#FCFAFC" d="M157.487 218.586C157.885 218.704 158.262 218.87 158.441 219.258C159.324 221.176 159.174 229.036 158.62 230.691C157.951 230.295 157.565 229.903 157.303 229.151C156.649 227.269 156.699 220.182 157.487 218.586Z"></path></svg><style>@media (prefers-color-scheme: light) { :root { filter: none; } }
@media (prefers-color-scheme: dark) { :root { filter: none; } }
</style></svg>