<svg version="1.1" id="Layer_1" xmlns="http://www.w3.org/2000/svg" xmlns:xlink="http://www.w3.org/1999/xlink" x="0px" y="0px"
	 width="100%" viewBox="0 0 1024 1024" enable-background="new 0 0 1024 1024" xml:space="preserve">

<path fill="#FF7715" opacity="1.000000" stroke="none" 
	d="
M481.823608,507.995544 
	C479.575165,515.377502 478.507233,523.439819 474.753143,529.954102 
	C470.837463,536.748779 465.168152,543.252380 458.755585,547.712097 
	C450.133942,553.708130 440.197235,557.244385 428.987610,557.186584 
	C410.045502,557.088867 396.752014,548.047424 386.995850,532.856262 
	C382.267883,525.494446 379.467804,517.232727 378.901855,507.473175 
	C378.981628,412.648560 378.994202,318.728516 378.966827,224.808502 
	C378.966339,223.209488 378.482605,221.610611 378.224396,220.011673 
	C380.444244,207.622757 386.597992,197.777603 398.151611,192.461578 
	C403.000092,190.230713 408.828857,190.158218 414.189148,188.999039 
	C416.565155,188.485199 418.884583,187.709747 421.936859,187.369598 
	C423.295654,187.785019 423.947266,187.970215 424.598938,187.970444 
	C461.134705,187.983749 497.670471,187.989822 534.206177,187.946167 
	C535.457458,187.944672 536.708069,187.429031 537.958984,187.153030 
	C549.313965,189.390396 560.951782,190.718048 571.939941,194.135010 
	C581.842102,197.214249 591.746338,201.505112 600.357727,207.211273 
	C611.336914,214.486420 621.627808,223.099045 631.042908,232.330887 
	C637.323242,238.488998 641.558472,246.732773 646.963379,254.622513 
	C647.510071,255.466003 647.802246,255.730087 648.094482,255.994171 
	C648.094482,255.994171 648.020325,255.987885 648.040039,256.273193 
	C648.409729,257.035248 648.759583,257.512024 649.109436,257.988831 
	C649.109436,257.988831 649.028748,257.966888 649.023926,258.258270 
	C649.392090,259.026672 649.765198,259.503723 650.138245,259.980743 
	C650.138245,259.980743 650.044006,259.968964 650.037109,260.252808 
	C650.394592,261.018738 650.758972,261.500824 651.123291,261.982910 
	C651.123291,261.982910 651.036743,261.959320 651.027344,262.250580 
	C651.391846,263.022614 651.765747,263.503387 652.139587,263.984161 
	C652.139587,263.984161 652.043701,263.981995 652.038391,264.258789 
	C652.372009,265.025330 652.710938,265.515045 653.049927,266.004822 
	C653.049866,266.004822 652.992188,265.994812 653.001099,266.348206 
	C653.716064,268.129700 654.422058,269.557831 655.128113,270.985931 
	C655.128113,270.985931 655.036621,270.982971 655.020325,271.327271 
	C655.724976,273.436584 656.445923,275.201599 657.166931,276.966614 
	C657.166931,276.966614 657.077576,276.864746 657.052490,277.173767 
	C657.451172,278.613861 657.874939,279.744934 658.298706,280.876038 
	C658.855713,282.344238 659.412720,283.812439 659.711243,285.893860 
	C660.034973,287.986511 660.617065,289.466034 661.199158,290.945557 
	C661.199158,290.945557 661.123718,290.995361 661.068420,291.354309 
	C661.404907,293.130981 661.796692,294.548706 662.188477,295.966431 
	C662.188477,295.966431 662.103027,295.990265 662.060303,296.387329 
	C662.947510,301.825043 663.877502,306.865631 664.807434,311.906250 
	C665.656250,329.360779 663.284668,346.272034 657.744446,362.938934 
	C653.452515,375.850372 647.650940,387.956329 639.360840,398.480560 
	C632.448242,407.255981 623.913574,414.792572 615.799194,422.566589 
	C611.539612,426.647522 606.980103,430.621490 601.961548,433.662750 
	C589.978943,440.924347 577.705200,447.779938 563.747375,450.645569 
	C556.111755,452.213196 548.419250,453.503998 540.026733,454.601013 
	C522.585999,454.184204 505.871063,454.074005 489.155914,454.028717 
	C488.430847,454.026764 487.704132,454.621552 486.978180,454.938354 
	C485.564941,456.425598 484.151672,457.912842 482.125092,459.800476 
	C481.422058,475.869202 481.329468,491.537537 481.266968,507.205994 
	C481.265900,507.468445 481.629944,507.732330 481.823608,507.995544 
M447.512207,465.617676 
	C447.653046,464.913574 447.793884,464.209503 447.935242,462.789673 
	C449.541016,459.407410 451.116852,456.010559 452.757690,452.645386 
	C460.447662,436.874115 467.784393,420.913147 476.052216,405.450317 
	C479.072937,399.800873 483.783447,394.720276 488.681152,390.489197 
	C495.663208,384.457428 504.170380,381.731384 513.527405,380.216766 
	C530.501709,377.469086 543.623718,367.252136 555.012878,354.928467 
	C566.083618,342.949432 574.096985,329.066833 578.924744,313.439240 
	C584.023499,296.934540 585.139465,280.479401 577.852356,264.234192 
	C571.788086,250.715149 558.692078,238.467377 540.381592,240.128860 
	C532.267090,240.865173 524.374512,242.846893 517.454956,247.876266 
	C511.208008,252.416779 503.634796,255.416992 498.153900,260.669495 
	C485.661835,272.640930 474.580261,285.844635 466.821808,301.671143 
	C462.730591,310.016846 460.451111,318.565094 460.059265,327.643738 
	C459.658142,336.936493 461.678406,345.938873 464.329803,354.831116 
	C467.157623,364.315033 467.200653,373.761230 461.791199,382.433563 
	C454.411743,394.264191 446.784149,405.942352 439.129120,417.598022 
	C432.611145,427.522369 425.728149,437.210236 419.341370,447.216400 
	C414.982666,454.045197 410.901947,461.090210 407.231476,468.310272 
	C402.065460,478.472107 396.320404,488.531067 392.773010,499.277740 
	C387.885712,514.083618 388.815826,528.553223 401.202209,540.394165 
	C403.442444,542.535767 405.178192,542.538330 407.590454,541.637634 
	C414.378571,539.103088 419.016693,534.058350 421.775543,527.750183 
	C427.374847,514.947266 432.349457,501.871155 438.274536,488.650513 
	C438.494476,487.730438 438.714417,486.810364 438.971313,485.969086 
	C438.971313,485.969086 438.888306,485.995361 439.510406,485.659546 
	C439.664093,484.750793 439.817810,483.842041 439.994904,482.995483 
	C439.994904,482.995483 439.928558,482.999268 440.515747,482.724884 
	C440.658508,482.112488 440.801270,481.500092 440.972870,480.978180 
	C440.972870,480.978180 440.879791,480.997131 441.520630,480.664459 
	C441.989349,479.070251 442.458069,477.476044 442.973083,475.958923 
	C442.973083,475.958923 442.890778,475.995178 443.501099,475.649536 
	C443.658630,474.743408 443.816132,473.837250 443.995819,472.994446 
	C443.995819,472.994446 443.929016,473.000702 444.523438,472.718170 
	C444.651306,472.093262 444.779175,471.468323 444.960602,470.951660 
	C444.960602,470.951660 444.846161,470.990173 445.465973,470.651001 
	C445.637085,469.744476 445.808197,468.837921 446.001404,467.993530 
	C446.001404,467.993530 445.936188,468.003326 446.527710,467.721893 
	C446.657684,467.102692 446.787628,466.483521 446.975464,465.948425 
	C446.975464,465.948425 446.885803,465.997253 447.512207,465.617676 
z"/>
<path fill="#FF7816" opacity="1.000000" stroke="none" 
	d="
M235.993240,612.950500 
	C237.431732,611.694275 238.870224,610.438049 240.966522,609.444214 
	C242.273468,609.809204 242.922562,610.001160 243.571747,610.001465 
	C268.757263,610.012451 293.942841,610.017212 319.128265,609.968323 
	C320.389679,609.965881 321.650177,609.478455 322.911102,609.216858 
	C330.605988,612.082886 338.351624,614.823059 345.964966,617.891479 
	C348.253662,618.813965 350.336304,620.464050 352.225952,622.110596 
	C355.230072,624.728271 358.001770,627.613708 360.856049,630.402039 
	C370.527344,639.849426 372.178131,652.231873 372.899200,664.724060 
	C373.646362,677.667969 372.787659,690.715576 365.608643,701.920227 
	C358.854767,712.461365 350.601990,721.946289 337.459259,724.997925 
	C328.574921,727.060730 319.651398,728.954956 310.015747,730.604736 
	C297.398346,730.187744 285.510651,730.067261 273.622742,730.041382 
	C272.747986,730.039429 271.871765,730.719788 270.996216,731.082886 
	C270.996216,731.082886 270.996490,730.996216 270.736206,731.284668 
	C270.317627,732.869385 270.024048,734.165283 270.021729,735.461792 
	C269.996246,749.670898 270.016174,763.880127 270.023773,778.089294 
	C270.023773,778.089294 270.010956,778.010559 269.787842,778.097412 
	C269.381866,778.500305 269.198975,778.816223 269.016113,779.132141 
	C269.016083,779.132141 269.024384,779.014526 268.817383,779.109680 
	C268.413300,779.504395 268.216217,779.804016 268.019104,780.103577 
	C268.019104,780.103577 268.014526,780.028564 267.577271,780.011353 
	C257.737366,780.017456 248.334747,780.040833 238.932114,780.064270 
	C238.932114,780.064270 239.024719,780.199829 238.864471,779.927368 
	C238.099350,779.460144 237.494461,779.265320 236.889572,779.070557 
	C236.889572,779.070557 236.970764,779.013123 236.982849,778.722290 
	C236.650055,777.611633 236.305161,776.791809 235.963242,775.505127 
	C235.975220,721.009033 235.984222,666.979736 235.993240,612.950500 
M271.175934,698.718323 
	C272.310883,699.152588 273.443024,699.955139 274.581238,699.963867 
	C285.506866,700.047974 296.433960,700.040771 307.359375,699.933594 
	C308.745148,699.920044 310.123810,699.181580 312.247986,698.838501 
	C325.398590,696.684204 334.651367,690.111572 336.591339,676.165222 
	C338.683411,661.125122 335.296326,647.685791 318.439880,642.624207 
	C314.732697,642.094788 311.033722,641.189697 307.316711,641.108337 
	C297.262146,640.888062 287.199707,640.984009 277.140961,641.047791 
	C275.746429,641.056580 274.355255,641.591980 272.458923,642.133606 
	C272.010376,642.449402 271.561829,642.765198 270.455505,643.582336 
	C270.322144,644.057129 270.073151,644.531738 270.072144,645.006836 
	C270.036224,661.645142 270.004181,678.283569 270.054474,694.921753 
	C270.057617,695.956665 270.732819,696.989685 270.997528,698.003723 
	C270.997528,698.003723 271.016174,697.905640 271.175934,698.718323 
z"/>
<path fill="#FF7615" opacity="1.000000" stroke="none" 
	d="
M473.084045,681.350464 
	C471.209442,683.643005 469.398071,685.991028 467.444489,688.214050 
	C464.931061,691.074097 462.513245,692.932922 458.304565,690.210754 
	C453.272369,686.955933 447.659180,684.600525 442.302673,681.845703 
	C439.115875,680.206787 438.008514,677.360718 439.371246,674.331177 
	C443.408997,665.354858 450.313171,659.259644 459.576385,655.969482 
	C466.002563,653.686951 472.466858,651.484192 479.009186,649.570862 
	C481.335938,648.890320 483.941559,649.139832 486.422363,649.013977 
	C492.998444,648.680420 499.639343,647.683105 506.132385,648.279114 
	C511.154602,648.740112 515.992188,651.210571 520.913025,652.783936 
	C521.228088,652.884705 521.557251,652.941345 521.873474,653.039062 
	C535.009460,657.097656 541.826416,666.964539 545.780396,679.744263 
	C545.699463,680.477844 545.821533,680.742310 545.943604,681.006775 
	C545.943604,681.006775 546.091125,681.365723 545.941956,681.913513 
	C546.184509,686.141724 546.867371,689.818420 546.914001,693.503174 
	C547.059265,704.968140 547.306152,716.448730 546.881165,727.899841 
	C546.236633,745.264160 549.220703,762.766968 544.981018,779.994934 
	C544.981018,779.994934 544.560791,780.048462 543.871826,780.030579 
	C535.096130,780.015991 527.009338,780.019287 518.922607,780.022583 
	C518.922607,780.022583 518.988586,780.002441 518.893188,779.774536 
	C518.469543,779.383423 518.141296,779.220154 517.813110,779.056824 
	C516.874756,775.240784 515.936401,771.424744 515.021851,767.705566 
	C509.014191,771.494141 503.038452,775.262512 496.361816,779.065063 
	C495.102936,779.433228 494.544922,779.767334 493.986877,780.101501 
	C493.986908,780.101501 494.006226,780.010498 493.669495,780.015869 
	C492.218384,780.398193 491.104065,780.775146 489.989746,781.152100 
	C489.989746,781.152100 490.026794,781.031616 489.679169,781.023132 
	C487.886017,781.383179 486.440460,781.751648 484.994934,782.120178 
	C484.994934,782.120178 485.003204,782.021973 484.578156,782.031860 
	C479.103210,782.312622 474.053284,782.583557 469.003387,782.854492 
	C468.525116,782.891663 468.046814,782.928833 467.046448,782.702881 
	C465.920105,782.298157 465.315918,782.156555 464.711731,782.014954 
	C449.376862,780.436829 436.812866,773.630127 431.237732,759.069946 
	C425.699951,744.607178 428.107880,730.580872 439.495331,718.730896 
	C446.955109,710.968079 456.079987,707.131226 466.264282,704.984924 
	C467.986847,704.621887 469.622650,703.847229 471.992004,703.490234 
	C485.630951,703.795349 498.576416,703.896790 511.521912,703.894043 
	C512.339661,703.893860 513.157349,703.082153 513.975037,702.648010 
	C517.044067,694.707031 513.355713,685.058044 504.967529,679.263367 
	C504.036743,678.516724 503.404266,678.371216 502.771759,678.225708 
	C502.771759,678.225708 502.880676,678.151001 502.728882,677.862427 
	C498.570862,676.713806 494.538055,675.072815 490.565735,675.208069 
	C486.388336,675.350281 482.268799,677.192078 478.123962,678.291138 
	C478.123962,678.291138 478.104126,678.143066 477.903931,678.191040 
	C477.480011,678.508911 477.256287,678.778809 477.032532,679.048706 
	C477.032562,679.048706 476.997559,679.002686 476.706299,679.034973 
	C475.957947,679.419922 475.500824,679.772583 475.043701,680.125244 
	C475.043701,680.125244 475.030365,680.035950 474.729858,680.057312 
	C473.980927,680.502563 473.532471,680.926514 473.084045,681.350464 
M514.792053,724.306641 
	C513.983643,723.883911 513.179016,723.102295 512.366150,723.093689 
	C503.770264,723.002258 495.172699,723.000183 486.576691,723.085144 
	C485.741455,723.093445 484.913605,723.848816 483.604004,724.880371 
	C479.002136,726.420471 474.121796,727.422058 469.862671,729.624817 
	C463.204132,733.068542 460.855682,743.070312 465.849030,750.226440 
	C470.170166,756.419189 480.230804,759.844177 488.532257,757.733215 
	C503.493317,753.928711 514.510193,740.302002 514.792053,724.306641 
z"/>
<path fill="#FF7716" opacity="1.000000" stroke="none" 
	d="
M574.831421,680.983948 
	C569.391052,680.632080 563.950684,680.280273 558.052856,679.368225 
	C557.026306,678.561584 556.457153,678.315186 555.888062,678.068848 
	C555.888062,678.068848 555.959290,678.035217 555.853027,677.831299 
	C555.457153,677.429138 555.167664,677.230896 554.878113,677.032593 
	C554.878113,677.032593 554.970459,677.029053 554.870483,676.817505 
	C554.476807,676.404907 554.183105,676.203979 553.889404,676.003052 
	C553.889404,676.003052 553.977783,676.007019 553.983398,675.576050 
	C553.977478,668.392700 553.965820,661.640320 553.954224,654.887878 
	C553.954224,654.887878 553.956116,654.996521 554.188965,654.840332 
	C554.595703,654.086121 554.769531,653.488037 554.943298,652.890015 
	C554.943298,652.890015 554.980591,652.955933 555.206665,652.895996 
	C555.622314,652.538208 555.811890,652.240295 556.001404,651.942383 
	C562.133606,651.149536 568.265808,650.356628 575.029846,649.016113 
	C575.527283,640.002747 575.392883,631.536926 575.258545,623.071167 
	C576.316833,621.841248 577.375122,620.611267 579.067627,619.569092 
	C588.414246,619.830322 597.126587,619.903809 605.838928,619.977295 
	C606.831299,620.758362 607.823669,621.539368 608.558105,622.956787 
	C608.479370,632.049805 608.658508,640.506287 608.837646,648.962830 
	C609.055725,649.280212 609.273743,649.597656 610.069885,650.298950 
	C619.461060,650.777832 628.274109,650.872742 637.087219,650.967590 
	C637.087219,650.967590 637.014282,650.981201 637.112976,651.206421 
	C637.543579,651.579102 637.875427,651.726440 638.207336,651.873779 
	C638.207336,651.873779 638.096191,651.906799 638.173401,652.127258 
	C638.572083,652.531433 638.893494,652.715149 639.214966,652.898926 
	C639.214966,652.898926 639.096863,652.930664 639.158447,653.147217 
	C639.522522,653.568604 639.825073,653.773438 640.127625,653.978210 
	C640.127625,653.978210 640.042480,653.982605 640.018799,654.415588 
	C640.016052,661.938293 640.036926,669.027954 640.057739,676.117676 
	C640.057739,676.117676 640.048584,676.012634 639.803223,676.143799 
	C639.380676,676.877380 639.203430,677.479858 639.026123,678.082275 
	C639.026123,678.082275 639.014648,678.011719 638.724548,678.025940 
	C637.960999,678.408691 637.487549,678.777283 637.014099,679.145813 
	C637.014099,679.145813 637.005920,679.040161 636.581604,679.034241 
	C628.904297,679.024048 621.650146,678.948547 614.399414,679.074524 
	C612.923279,679.100159 611.460266,679.883301 609.991211,680.317261 
	C610.037720,680.613647 609.926025,680.827271 609.081787,681.182739 
	C608.354919,682.046326 608.070190,682.685120 608.069092,683.324463 
	C608.039124,700.153442 608.020447,716.982544 608.076355,733.811401 
	C608.079834,734.860107 608.707031,735.906738 609.044006,736.954346 
	C610.608643,740.000732 612.173218,743.047058 613.963257,746.682617 
	C614.488831,747.503479 614.789062,747.735229 615.089294,747.966980 
	C615.089294,747.966980 614.997559,747.918945 615.155396,748.178589 
	C615.931702,748.589661 616.550293,748.741028 617.168823,748.892456 
	C617.168823,748.892456 617.073181,748.965515 617.216797,749.224243 
	C618.278503,749.636169 619.196655,749.789368 620.114746,749.942627 
	C620.114746,749.942627 620.018188,749.979736 620.228027,750.254028 
	C625.662231,750.998901 630.886597,751.469543 636.111023,751.940186 
	C636.111023,751.940186 636.029907,751.975464 636.167236,752.220459 
	C636.909729,752.620544 637.514954,752.775696 638.120117,752.930786 
	C638.120117,752.930786 638.052979,752.972168 638.120789,753.196289 
	C638.488831,753.606812 638.789124,753.793274 639.089355,753.979736 
	C639.089355,753.979736 639.015137,753.981873 638.997131,754.381653 
	C639.333557,762.551025 639.687988,770.320618 640.042358,778.090210 
	C640.042419,778.090210 640.032104,778.009094 639.781311,778.137512 
	C639.365295,778.653870 639.200134,779.041748 639.034973,779.429688 
	C635.891113,780.615112 632.819092,782.546631 629.591125,782.857178 
	C615.474792,784.215576 601.959290,781.871765 589.952637,773.957886 
	C582.501404,769.046753 578.016663,761.785217 576.016724,753.048706 
	C575.760925,751.931274 575.445435,750.827454 575.433350,749.018799 
	C575.793762,726.720642 575.891357,705.120911 575.914917,683.521179 
	C575.915833,682.675842 575.208618,681.829712 574.831421,680.983948 
z"/>
<path fill="#FF7816" opacity="1.000000" stroke="none" 
	d="
M414.012909,600.021606 
	C414.969452,600.783997 415.925964,601.546387 416.957397,603.072754 
	C417.033600,661.628845 417.034943,719.420959 417.036285,777.213135 
	C416.363220,778.176575 415.690155,779.140076 414.196381,780.055847 
	C404.556549,780.014038 395.737396,780.019836 386.918274,780.025696 
	C386.918274,780.025696 386.986511,780.006653 386.897858,779.786377 
	C386.504578,779.384521 386.199982,779.202942 385.895386,779.021301 
	C385.895386,779.021301 385.986115,779.010254 385.890381,778.796387 
	C385.490082,778.392883 385.185516,778.203247 384.880951,778.013611 
	C384.880951,778.013611 384.970093,778.012573 384.976318,777.581055 
	C384.984009,718.969482 384.985535,660.789307 384.987061,602.609192 
	C385.661835,601.723450 386.336609,600.837708 387.812317,599.971680 
	C397.079773,600.001526 405.546356,600.011597 414.012909,600.021606 
z"/>
<path fill="#FF7716" opacity="1.000000" stroke="none" 
	d="
M769.334717,651.978394 
	C770.627502,657.866455 771.920227,663.754517 773.210632,669.631836 
	C774.304626,668.211853 775.518372,666.236267 777.113403,664.642090 
	C781.685974,660.072266 785.982971,655.057983 791.182739,651.325073 
	C798.505554,646.068054 807.016846,647.141724 815.294678,649.133728 
	C818.059937,649.799194 819.190552,651.618164 819.025208,654.637146 
	C818.770447,659.287231 818.828369,663.967590 819.006531,668.625488 
	C819.332581,677.154785 817.492188,680.973694 808.345154,680.717529 
	C790.624084,680.221191 781.425171,690.512817 773.763184,704.908508 
	C773.246826,706.679443 773.134216,707.884644 773.021667,709.089783 
	C773.021667,709.089783 772.999817,709.003784 772.723206,709.217407 
	C771.986084,711.846802 771.139221,714.260437 771.125977,716.678589 
	C771.015381,736.931641 771.057800,757.185425 771.054138,777.439026 
	C770.952515,777.912659 770.850830,778.386230 770.157043,778.937744 
	C769.051025,779.409363 768.537170,779.803101 768.023315,780.196899 
	C768.023315,780.196899 768.002197,780.078735 767.584656,780.048828 
	C758.954773,780.029175 750.742493,780.039490 742.530151,780.049805 
	C741.093201,778.583557 739.656311,777.117371 738.468872,774.990967 
	C738.806519,773.675781 738.971802,773.020813 738.971741,772.365845 
	C738.968750,734.253052 738.952209,696.140198 739.094238,657.681396 
	C739.483765,655.857605 739.716003,654.379883 739.948242,652.902161 
	C739.948181,652.902161 739.971375,652.974915 740.197876,652.896179 
	C740.611084,652.512207 740.797791,652.206970 740.984436,651.901672 
	C740.984436,651.901672 740.982056,651.976440 741.266968,651.962158 
	C742.031494,651.599609 742.511047,651.251221 742.990601,650.902832 
	C742.990662,650.902893 742.981873,650.976929 743.420532,651.000854 
	C751.610352,650.994507 759.361633,650.964233 767.112854,650.933960 
	C767.112854,650.933960 767.014221,650.952942 767.173218,651.214905 
	C767.999695,651.644043 768.667236,651.811218 769.334717,651.978394 
z"/>
<path fill="#FF7716" opacity="1.000000" stroke="none" 
	d="
M681.007080,780.854675 
	C674.257629,780.909668 667.506775,780.901062 660.759155,781.041809 
	C656.181030,781.137268 653.232361,779.317871 652.577576,773.954590 
	C652.826111,770.954529 652.966431,768.629395 652.967407,766.304321 
	C652.982849,729.172058 652.980530,692.039734 652.982239,654.907471 
	C652.982239,654.907471 652.991211,654.992920 653.241882,654.859741 
	C653.644775,654.119263 653.796997,653.512024 653.949280,652.904785 
	C653.949280,652.904785 653.979980,652.973267 654.205627,652.896545 
	C654.613037,652.515503 654.794800,652.211243 654.976562,651.906921 
	C654.976562,651.906921 654.965210,651.982239 655.294128,652.002563 
	C656.394958,651.601135 657.166870,651.179321 657.938782,650.757568 
	C657.938782,650.757568 658.013184,650.849304 658.437500,650.916992 
	C665.582886,650.992432 672.304077,651.000061 679.025208,651.007690 
	C683.714111,652.769226 685.478088,656.186707 685.037964,661.091492 
	C684.793335,663.817627 684.994080,666.583740 684.994080,668.843628 
	C689.559814,664.168091 694.045227,659.356567 698.771545,654.794617 
	C703.757019,649.982544 709.571045,647.019592 716.810913,647.977722 
	C717.628174,648.085876 718.470764,648.003906 719.301575,648.009216 
	C730.677124,648.082275 731.995911,649.395752 731.985413,660.640564 
	C731.981506,664.794983 731.978394,668.949341 731.670715,673.757019 
	C731.280334,674.994751 731.194153,675.579285 731.107971,676.163757 
	C731.107971,676.163757 731.061401,676.052734 730.812378,676.168091 
	C730.401794,676.896057 730.240112,677.508606 730.078430,678.121216 
	C730.078430,678.121216 730.015015,678.064331 729.654846,678.059387 
	C728.182373,678.371948 727.088623,678.805603 725.954529,678.986755 
	C721.311523,679.728333 716.656189,680.392883 712.005432,681.085815 
	C712.005432,681.085876 712.087891,681.041748 711.705994,681.029846 
	C710.243042,681.504700 709.161987,681.991455 708.080872,682.478149 
	C701.834473,684.424133 696.713013,687.914734 694.045898,694.024353 
	C691.393005,700.101501 689.230408,706.392639 686.181152,713.057983 
	C685.332947,715.319702 685.007019,717.113159 685.002991,718.907227 
	C684.965515,735.695862 685.029846,752.484924 684.944946,769.273254 
	C684.928406,772.556458 684.395386,775.836975 684.100586,779.118774 
	C684.100586,779.118774 684.075989,778.994385 683.746277,779.007812 
	C682.613403,779.632385 681.810242,780.243530 681.007080,780.854675 
z"/>
<path fill="#FC1B00" opacity="1.000000" stroke="none" 
	d="
M378.132721,220.474457 
	C378.482605,221.610611 378.966339,223.209488 378.966827,224.808502 
	C378.994202,318.728516 378.981628,412.648560 378.966064,507.076721 
	C378.645569,506.024506 378.058014,504.464264 378.057434,502.903809 
	C378.021332,408.914948 378.033447,314.926086 378.132721,220.474457 
z"/>
<path fill="#FF610E" opacity="1.000000" stroke="none" 
	d="
M545.234619,780.138550 
	C549.220703,762.766968 546.236633,745.264160 546.881165,727.899841 
	C547.306152,716.448730 547.059265,704.968140 546.914001,693.503174 
	C546.867371,689.818420 546.184509,686.141724 545.939941,682.107483 
	C547.045532,688.183716 548.741516,694.603638 548.830688,701.045715 
	C549.162170,724.969971 549.067078,748.902649 548.813782,772.828796 
	C548.787354,775.324707 546.647461,777.798279 545.234619,780.138550 
z"/>
<path fill="#FF2800" opacity="1.000000" stroke="none" 
	d="
M384.630615,602.899414 
	C384.985535,660.789307 384.984009,718.969482 384.972229,777.625488 
	C384.477142,775.751221 383.570465,773.401306 383.569489,771.050964 
	C383.547577,718.245850 383.615265,665.440674 383.708801,612.635620 
	C383.714386,609.486633 384.077454,606.338318 384.630615,602.899414 
z"/>
<path fill="#FD0900" opacity="1.000000" stroke="none" 
	d="
M417.388336,776.942993 
	C417.034943,719.420959 417.033600,661.628845 417.069519,603.364319 
	C417.405884,604.095215 417.965668,605.298279 417.966583,606.501709 
	C418.009460,662.403015 418.004761,718.304382 417.992554,774.205688 
	C417.992371,775.028076 417.828064,775.850464 417.388336,776.942993 
z"/>
<path fill="#FD0900" opacity="1.000000" stroke="none" 
	d="
M235.608734,613.162109 
	C235.984222,666.979736 235.975220,721.009033 235.762115,775.517334 
	C235.558044,775.996338 235.154388,776.000244 235.154388,776.000244 
	C235.105835,736.919556 235.032593,697.838806 235.021179,658.758118 
	C235.016769,643.630005 235.152405,628.501892 235.608734,613.162109 
z"/>
<path fill="#FF610E" opacity="1.000000" stroke="none" 
	d="
M684.440308,778.963257 
	C684.395386,775.836975 684.928406,772.556458 684.944946,769.273254 
	C685.029846,752.484924 684.965515,735.695862 685.002991,718.907227 
	C685.007019,717.113159 685.332947,715.319702 685.856567,713.283203 
	C686.354553,715.132874 686.631470,717.224976 686.636658,719.317810 
	C686.678650,736.303040 686.756836,753.289246 686.591125,770.272888 
	C686.563232,773.123474 685.412170,775.963074 684.440308,778.963257 
z"/>
<path fill="#FF2800" opacity="1.000000" stroke="none" 
	d="
M771.375000,777.165649 
	C771.057800,757.185425 771.015381,736.931641 771.125977,716.678589 
	C771.139221,714.260437 771.986084,711.846802 772.766357,709.206970 
	C772.835266,728.993347 772.604187,749.004089 772.309753,769.013916 
	C772.271057,771.642456 771.908447,774.266296 771.375000,777.165649 
z"/>
<path fill="#FD0900" opacity="1.000000" stroke="none" 
	d="
M652.655396,655.192688 
	C652.980530,692.039734 652.982849,729.172058 652.967407,766.304321 
	C652.966431,768.629395 652.826111,770.954529 652.502197,773.602295 
	C652.170837,749.034790 652.033752,724.144653 652.025391,699.254456 
	C652.020508,684.662354 652.220642,670.070068 652.655396,655.192688 
z"/>
<path fill="#FC1B00" opacity="1.000000" stroke="none" 
	d="
M738.936951,658.027405 
	C738.952209,696.140198 738.968750,734.253052 738.971741,772.365845 
	C738.971802,773.020813 738.806519,773.675781 738.465942,774.659424 
	C738.141785,755.231506 738.040100,735.474976 738.006653,715.718262 
	C737.974609,696.786926 738.013428,677.855408 738.284607,658.464355 
	C738.548157,658.004700 738.936951,658.027405 738.936951,658.027405 
z"/>
<path fill="#FC1B00" opacity="1.000000" stroke="none" 
	d="
M537.495117,187.094818 
	C536.708069,187.429031 535.457458,187.944672 534.206177,187.946167 
	C497.670471,187.989822 461.134705,187.983749 424.598938,187.970444 
	C423.947266,187.970215 423.295654,187.785019 422.325806,187.418732 
	C460.348816,187.113083 498.690063,187.074844 537.495117,187.094818 
z"/>
<path fill="#FC1B00" opacity="1.000000" stroke="none" 
	d="
M322.454346,609.134766 
	C321.650177,609.478455 320.389679,609.965881 319.128265,609.968323 
	C293.942841,610.017212 268.757263,610.012451 243.571747,610.001465 
	C242.922562,610.001160 242.273468,609.809204 241.311218,609.429626 
	C267.997955,609.119263 294.997772,609.085999 322.454346,609.134766 
z"/>
<path fill="#FD0900" opacity="1.000000" stroke="none" 
	d="
M574.910828,681.449097 
	C575.208618,681.829712 575.915833,682.675842 575.914917,683.521179 
	C575.891357,705.120911 575.793762,726.720642 575.439880,748.631226 
	C575.110535,726.599487 575.050415,704.256897 574.910828,681.449097 
z"/>
<path fill="#FD0900" opacity="1.000000" stroke="none" 
	d="
M609.058105,736.491089 
	C608.707031,735.906738 608.079834,734.860107 608.076355,733.811401 
	C608.020447,716.982544 608.039124,700.153442 608.069092,683.324463 
	C608.070190,682.685120 608.354919,682.046326 608.889526,681.195923 
	C609.205017,699.332397 609.138611,717.680115 609.058105,736.491089 
z"/>
<path fill="#FF2800" opacity="1.000000" stroke="none" 
	d="
M487.449341,454.969360 
	C487.704132,454.621552 488.430847,454.026764 489.155914,454.028717 
	C505.871063,454.074005 522.585999,454.184204 539.609863,454.549744 
	C522.585999,454.878174 505.253235,454.939240 487.449341,454.969360 
z"/>
<path fill="#FD0900" opacity="1.000000" stroke="none" 
	d="
M481.894104,507.529053 
	C481.629944,507.732330 481.265900,507.468445 481.266968,507.205994 
	C481.329468,491.537537 481.422058,475.869202 481.815308,459.845245 
	C482.067474,475.347290 482.016022,491.204895 481.894104,507.529053 
z"/>
<path fill="#FF2800" opacity="1.000000" stroke="none" 
	d="
M270.357727,777.811707 
	C270.016174,763.880127 269.996246,749.670898 270.021729,735.461792 
	C270.024048,734.165283 270.317627,732.869385 270.779572,731.284119 
	C270.952698,746.508057 270.822174,762.021118 270.357727,777.811707 
z"/>
<path fill="#FF2800" opacity="1.000000" stroke="none" 
	d="
M513.523438,702.782349 
	C513.157349,703.082153 512.339661,703.893860 511.521912,703.894043 
	C498.576416,703.896790 485.630951,703.795349 472.358521,703.467651 
	C485.711670,703.117249 499.391754,703.017029 513.523438,702.782349 
z"/>
<path fill="#FF2800" opacity="1.000000" stroke="none" 
	d="
M271.466492,731.129761 
	C271.871765,730.719788 272.747986,730.039429 273.622742,730.041382 
	C285.510651,730.067261 297.398346,730.187744 309.597717,730.547058 
	C297.251831,730.931702 284.594299,731.054138 271.466492,731.129761 
z"/>
<path fill="#FF610E" opacity="1.000000" stroke="none" 
	d="
M478.547058,678.240112 
	C482.268799,677.192078 486.388336,675.350281 490.565735,675.208069 
	C494.538055,675.072815 498.570862,676.713806 502.740784,677.927368 
	C494.932831,676.574463 486.957123,675.911987 478.547058,678.240112 
z"/>
<path fill="#FE3D04" opacity="1.000000" stroke="none" 
	d="
M239.148956,780.444153 
	C248.334747,780.040833 257.737366,780.017456 267.613739,780.020386 
	C265.592194,780.363953 263.099457,780.925598 260.601135,780.951904 
	C253.523941,781.026550 246.444412,780.882202 239.148956,780.444153 
z"/>
<path fill="#FC1B00" opacity="1.000000" stroke="none" 
	d="
M605.670410,619.582947 
	C597.126587,619.903809 588.414246,619.830322 579.377197,619.506714 
	C587.868958,619.233948 596.685425,619.211304 605.670410,619.582947 
z"/>
<path fill="#FC1B00" opacity="1.000000" stroke="none" 
	d="
M610.444702,680.177979 
	C611.460266,679.883301 612.923279,679.100159 614.399414,679.074524 
	C621.650146,678.948547 628.904297,679.024048 636.634521,679.034790 
	C633.462219,679.361877 629.817932,679.843811 626.161743,679.963867 
	C621.078552,680.130920 615.986450,680.026794 610.444702,680.177979 
z"/>
<path fill="#FE3D04" opacity="1.000000" stroke="none" 
	d="
M387.205261,780.348633 
	C395.737396,780.019836 404.556549,780.014038 413.870972,780.031738 
	C410.844971,780.372864 407.326752,780.906982 403.801605,780.957825 
	C398.367645,781.036316 392.928955,780.783691 387.205261,780.348633 
z"/>
<path fill="#FE3D04" opacity="1.000000" stroke="none" 
	d="
M636.807495,650.637207 
	C628.274109,650.872742 619.461060,650.777832 610.348816,650.398926 
	C618.875732,650.178894 627.701721,650.242859 636.807495,650.637207 
z"/>
<path fill="#FC1B00" opacity="1.000000" stroke="none" 
	d="
M413.838623,599.616699 
	C405.546356,600.011597 397.079773,600.001526 388.112732,599.994141 
	C390.820496,599.665039 394.024445,599.113647 397.238037,599.050354 
	C402.710297,598.942627 408.188599,599.141602 413.838623,599.616699 
z"/>
<path fill="#FD0900" opacity="1.000000" stroke="none" 
	d="
M575.153992,623.526306 
	C575.392883,631.536926 575.527283,640.002747 575.345581,648.751221 
	C575.036194,640.683044 575.042786,632.332275 575.153992,623.526306 
z"/>
<path fill="#FD0900" opacity="1.000000" stroke="none" 
	d="
M608.910034,648.500183 
	C608.658508,640.506287 608.479370,632.049805 608.580017,623.280457 
	C608.900696,631.324280 608.941589,639.680908 608.910034,648.500183 
z"/>
<path fill="#FE3D04" opacity="1.000000" stroke="none" 
	d="
M640.379517,777.817932 
	C639.687988,770.320618 639.333557,762.551025 639.015015,754.349121 
	C639.701111,755.668213 640.866028,757.407288 640.908386,759.173279 
	C641.055176,765.292358 640.811646,771.420776 640.379517,777.817932 
z"/>
<path fill="#FE3D04" opacity="1.000000" stroke="none" 
	d="
M635.917603,751.586243 
	C630.886597,751.469543 625.662231,750.998901 620.213196,750.204468 
	C625.233826,750.331238 630.479004,750.781799 635.917603,751.586243 
z"/>
<path fill="#FE3D04" opacity="1.000000" stroke="none" 
	d="
M742.855042,780.375305 
	C750.742493,780.039490 758.954773,780.029175 767.644653,780.045776 
	C762.611877,780.383667 757.104492,780.778259 751.590088,780.971008 
	C748.793274,781.068787 745.983704,780.802490 742.855042,780.375305 
z"/>
<path fill="#FE3D04" opacity="1.000000" stroke="none" 
	d="
M519.220154,780.333374 
	C527.009338,780.019287 535.096130,780.015991 543.659973,780.029236 
	C540.013489,780.363281 535.894043,780.849182 531.765137,780.950562 
	C527.687622,781.050720 523.600586,780.762146 519.220154,780.333374 
z"/>
<path fill="#FE3D04" opacity="1.000000" stroke="none" 
	d="
M766.869873,650.568726 
	C759.361633,650.964233 751.610352,650.994507 743.386230,650.986084 
	C746.711243,650.632446 750.504333,650.159180 754.308228,650.045349 
	C758.409180,649.922607 762.520203,650.136414 766.869873,650.568726 
z"/>
<path fill="#FE3D04" opacity="1.000000" stroke="none" 
	d="
M640.401001,675.848572 
	C640.036926,669.027954 640.016052,661.938293 640.023071,654.373169 
	C640.282043,661.125000 640.513123,668.352234 640.401001,675.848572 
z"/>
<path fill="#FE3D04" opacity="1.000000" stroke="none" 
	d="
M712.471191,681.128906 
	C716.656189,680.392883 721.311523,679.728333 725.954529,678.986755 
	C727.088623,678.805603 728.182373,678.371948 729.697266,678.055542 
	C726.330872,679.044373 722.590637,680.170593 718.780701,680.960876 
	C716.899170,681.351135 714.888916,681.121277 712.471191,681.128906 
z"/>
<path fill="#FE3D04" opacity="1.000000" stroke="none" 
	d="
M678.827393,650.617432 
	C672.304077,651.000061 665.582886,650.992432 658.391235,650.953796 
	C664.823669,650.690979 671.726624,650.459106 678.827393,650.617432 
z"/>
<path fill="#FC1B00" opacity="1.000000" stroke="none" 
	d="
M553.635437,655.180908 
	C553.965820,661.640320 553.977478,668.392700 553.978271,675.619995 
	C553.750549,669.221252 553.533630,662.347595 553.635437,655.180908 
z"/>
<path fill="#FE3D04" opacity="1.000000" stroke="none" 
	d="
M664.841675,311.499420 
	C663.877502,306.865631 662.947510,301.825043 662.058350,296.343048 
	C663.024841,300.965302 663.950378,306.028961 664.841675,311.499420 
z"/>
<path fill="#FF2800" opacity="1.000000" stroke="none" 
	d="
M469.468018,782.914673 
	C474.053284,782.583557 479.103210,782.312622 484.626953,782.038818 
	C480.044739,782.348938 474.988708,782.661987 469.468018,782.914673 
z"/>
<path fill="#FE3D04" opacity="1.000000" stroke="none" 
	d="
M657.177795,276.586578 
	C656.445923,275.201599 655.724976,273.436584 655.027466,271.282043 
	C655.763489,272.663879 656.476074,274.435211 657.177795,276.586578 
z"/>
<path fill="#FE3D04" opacity="1.000000" stroke="none" 
	d="
M655.088867,270.632385 
	C654.422058,269.557831 653.716064,268.129700 653.013367,266.321594 
	C653.694336,267.387360 654.372009,268.833069 655.088867,270.632385 
z"/>
<path fill="#FE3D04" opacity="1.000000" stroke="none" 
	d="
M661.231445,290.568268 
	C660.617065,289.466034 660.034973,287.986511 659.674805,286.295959 
	C660.352478,287.453613 660.808167,288.822296 661.231445,290.568268 
z"/>
<path fill="#FE3D04" opacity="1.000000" stroke="none" 
	d="
M739.094238,657.681396 
	C738.936951,658.027405 738.548157,658.004700 738.353455,657.999878 
	C738.544434,656.410461 738.930115,654.825867 739.631958,653.071716 
	C739.716003,654.379883 739.483765,655.857605 739.094238,657.681396 
z"/>
<path fill="#FE3D04" opacity="1.000000" stroke="none" 
	d="
M658.292603,280.556091 
	C657.874939,279.744934 657.451172,278.613861 657.108765,277.136047 
	C657.555603,277.938263 657.921021,279.087219 658.292603,280.556091 
z"/>
<path fill="#FE3D04" opacity="1.000000" stroke="none" 
	d="
M662.236145,295.565613 
	C661.796692,294.548706 661.404907,293.130981 661.048218,291.313904 
	C661.483459,292.331268 661.883606,293.748016 662.236145,295.565613 
z"/>
<path fill="#FF610E" opacity="1.000000" stroke="none" 
	d="
M681.324585,780.875244 
	C681.810242,780.243530 682.613403,779.632385 683.768799,779.068481 
	C683.294739,779.709106 682.468445,780.302490 681.324585,780.875244 
z"/>
<path fill="#FF2800" opacity="1.000000" stroke="none" 
	d="
M485.390686,782.096008 
	C486.440460,781.751648 487.886017,781.383179 489.737366,781.047241 
	C488.690918,781.410522 487.238647,781.741211 485.390686,782.096008 
z"/>
<path fill="#FF2800" opacity="1.000000" stroke="none" 
	d="
M773.309570,708.857544 
	C773.134216,707.884644 773.246826,706.679443 773.639648,705.242676 
	C773.812378,706.215759 773.704895,707.420593 773.309570,708.857544 
z"/>
<path fill="#FE3D04" opacity="1.000000" stroke="none" 
	d="
M708.440063,682.351379 
	C709.161987,681.991455 710.243042,681.504700 711.726379,681.071960 
	C711.018860,681.492126 709.909119,681.858337 708.440063,682.351379 
z"/>
<path fill="#FE3D04" opacity="1.000000" stroke="none" 
	d="
M235.111588,776.319153 
	C235.154388,776.000244 235.558044,775.996338 235.759155,775.984192 
	C236.305161,776.791809 236.650055,777.611633 236.962860,778.767822 
	C236.310120,778.282166 235.689453,777.460083 235.111588,776.319153 
z"/>
<path fill="#FF2800" opacity="1.000000" stroke="none" 
	d="
M490.365387,781.113342 
	C491.104065,780.775146 492.218384,780.398193 493.714539,780.027222 
	C492.977905,780.380371 491.859467,780.727478 490.365387,781.113342 
z"/>
<path fill="#FE3D04" opacity="1.000000" stroke="none" 
	d="
M619.930359,749.645508 
	C619.196655,749.789368 618.278503,749.636169 617.186035,749.172485 
	C617.923157,749.024109 618.834534,749.186218 619.930359,749.645508 
z"/>
<path fill="#FF2800" opacity="1.000000" stroke="none" 
	d="
M464.847107,782.209717 
	C465.315918,782.156555 465.920105,782.298157 466.698059,782.604126 
	C466.242065,782.647156 465.612274,782.525818 464.847107,782.209717 
z"/>
<path fill="#FE3D04" opacity="1.000000" stroke="none" 
	d="
M657.583740,650.739746 
	C657.166870,651.179321 656.394958,651.601135 655.263000,651.980652 
	C655.678223,651.532959 656.453491,651.127441 657.583740,650.739746 
z"/>
<path fill="#FE3D04" opacity="1.000000" stroke="none" 
	d="
M768.360962,780.158203 
	C768.537170,779.803101 769.051025,779.409363 769.914917,779.018311 
	C769.742920,779.387207 769.220764,779.753418 768.360962,780.158203 
z"/>
<path fill="#FE3D04" opacity="1.000000" stroke="none" 
	d="
M649.060791,257.683838 
	C648.759583,257.512024 648.409729,257.035248 648.046692,256.236572 
	C648.359741,256.402740 648.685913,256.890808 649.060791,257.683838 
z"/>
<path fill="#FE3D04" opacity="1.000000" stroke="none" 
	d="
M650.099915,259.661835 
	C649.765198,259.503723 649.392090,259.026672 649.040466,258.219849 
	C649.395142,258.374359 649.728333,258.858643 650.099915,259.661835 
z"/>
<path fill="#FE3D04" opacity="1.000000" stroke="none" 
	d="
M651.087830,261.663330 
	C650.758972,261.500824 650.394592,261.018738 650.050781,260.207336 
	C650.398376,260.366577 650.725342,260.855164 651.087830,261.663330 
z"/>
<path fill="#FE3D04" opacity="1.000000" stroke="none" 
	d="
M237.000122,779.374207 
	C237.494461,779.265320 238.099350,779.460144 238.801376,779.979858 
	C238.302567,780.095825 237.706619,779.886841 237.000122,779.374207 
z"/>
<path fill="#FF2800" opacity="1.000000" stroke="none" 
	d="
M494.329773,780.064453 
	C494.544922,779.767334 495.102936,779.433228 496.010986,779.115234 
	C495.798218,779.429993 495.235413,779.728699 494.329773,780.064453 
z"/>
<path fill="#FE3D04" opacity="1.000000" stroke="none" 
	d="
M617.032959,748.591797 
	C616.550293,748.741028 615.931702,748.589661 615.182007,748.134155 
	C615.666260,747.983826 616.281677,748.137512 617.032959,748.591797 
z"/>
<path fill="#FE3D04" opacity="1.000000" stroke="none" 
	d="
M637.992310,752.632812 
	C637.514954,752.775696 636.909729,752.620544 636.154541,752.178101 
	C636.624512,752.038757 637.244446,752.186707 637.992310,752.632812 
z"/>
<path fill="#FE3D04" opacity="1.000000" stroke="none" 
	d="
M653.031982,265.686768 
	C652.710938,265.515045 652.372009,265.025330 652.046082,264.211456 
	C652.377441,264.381134 652.695801,264.874939 653.031982,265.686768 
z"/>
<path fill="#FE3D04" opacity="1.000000" stroke="none" 
	d="
M652.095703,263.664154 
	C651.765747,263.503387 651.391846,263.022614 651.046265,262.209900 
	C651.400208,262.366669 651.726013,262.855408 652.095703,263.664154 
z"/>
<path fill="#FE3D04" opacity="1.000000" stroke="none" 
	d="
M769.140259,651.693359 
	C768.667236,651.811218 767.999695,651.644043 767.170532,651.164734 
	C767.654480,651.037842 768.300110,651.223083 769.140259,651.693359 
z"/>
<path fill="#FC1B00" opacity="1.000000" stroke="none" 
	d="
M554.636597,653.004150 
	C554.769531,653.488037 554.595703,654.086121 554.134827,654.836365 
	C554.008484,654.365173 554.169189,653.741760 554.636597,653.004150 
z"/>
<path fill="#FE3D04" opacity="1.000000" stroke="none" 
	d="
M653.657532,653.037231 
	C653.796997,653.512024 653.644775,654.119263 653.198975,654.862549 
	C653.058899,654.388916 653.212341,653.779297 653.657532,653.037231 
z"/>
<path fill="#FE3D04" opacity="1.000000" stroke="none" 
	d="
M731.394775,676.021362 
	C731.194153,675.579285 731.280334,674.994751 731.605774,674.223877 
	C731.790588,674.651367 731.736084,675.265137 731.394775,676.021362 
z"/>
<path fill="#FE3D04" opacity="1.000000" stroke="none" 
	d="
M639.310669,677.943237 
	C639.203430,677.479858 639.380676,676.877380 639.855957,676.145752 
	C639.967651,676.612488 639.781433,677.208374 639.310669,677.943237 
z"/>
<path fill="#FE3D04" opacity="1.000000" stroke="none" 
	d="
M730.379028,677.999390 
	C730.240112,677.508606 730.401794,676.896057 730.871338,676.156006 
	C731.012756,676.644836 730.846130,677.261230 730.379028,677.999390 
z"/>
<path fill="#FF610E" opacity="1.000000" stroke="none" 
	d="
M502.933899,678.500244 
	C503.404266,678.371216 504.036743,678.516724 504.797363,678.979797 
	C504.315674,679.123230 503.705872,678.949036 502.933899,678.500244 
z"/>
<path fill="#FE3D04" opacity="1.000000" stroke="none" 
	d="
M637.326294,679.099426 
	C637.487549,678.777283 637.960999,678.408691 638.759399,678.033630 
	C638.602417,678.369080 638.120422,678.711060 637.326294,679.099426 
z"/>
<path fill="#FE3D04" opacity="1.000000" stroke="none" 
	d="
M742.680054,650.945068 
	C742.511047,651.251221 742.031494,651.599609 741.230225,651.955078 
	C741.395508,651.637207 741.882507,651.312195 742.680054,650.945068 
z"/>
<path fill="#FF610E" opacity="1.000000" stroke="none" 
	d="
M473.381165,681.244873 
	C473.532471,680.926514 473.980927,680.502563 474.766846,680.083191 
	C474.628967,680.438232 474.153625,680.788818 473.381165,681.244873 
z"/>
<path fill="#FF610E" opacity="1.000000" stroke="none" 
	d="
M475.333710,680.074158 
	C475.500824,679.772583 475.957947,679.419922 476.727142,679.053955 
	C476.567413,679.368164 476.095581,679.695618 475.333710,680.074158 
z"/>
<path fill="#FC1B00" opacity="1.000000" stroke="none" 
	d="
M555.901611,678.411743 
	C556.457153,678.315186 557.026306,678.561584 557.717529,679.104858 
	C557.198181,679.185974 556.556641,678.970276 555.901611,678.411743 
z"/>
<path fill="#FE3D04" opacity="1.000000" stroke="none" 
	d="
M638.196411,651.564270 
	C637.875427,651.726440 637.543579,651.579102 637.109741,651.169495 
	C637.400330,651.023071 637.792847,651.138916 638.196411,651.564270 
z"/>
<path fill="#FC1B00" opacity="1.000000" stroke="none" 
	d="
M555.703491,651.939941 
	C555.811890,652.240295 555.622314,652.538208 555.171265,652.909302 
	C555.074951,652.634094 555.240234,652.285767 555.703491,651.939941 
z"/>
<path fill="#FE3D04" opacity="1.000000" stroke="none" 
	d="
M639.213501,652.566284 
	C638.893494,652.715149 638.572083,652.531433 638.176453,652.069336 
	C638.472229,651.938599 638.842102,652.086121 639.213501,652.566284 
z"/>
<path fill="#FE3D04" opacity="1.000000" stroke="none" 
	d="
M648.033142,255.693344 
	C647.802246,255.730087 647.510071,255.466003 647.165649,254.894287 
	C647.399597,254.855301 647.685669,255.123917 648.033142,255.693344 
z"/>
<path fill="#FE3D04" opacity="1.000000" stroke="none" 
	d="
M654.707703,651.977661 
	C654.794800,652.211243 654.613037,652.515503 654.168335,652.900513 
	C654.083191,652.670227 654.261047,652.359314 654.707703,651.977661 
z"/>
<path fill="#FE3D04" opacity="1.000000" stroke="none" 
	d="
M740.714478,651.974182 
	C740.797791,652.206970 740.611084,652.512207 740.159790,652.899170 
	C740.078308,652.669495 740.261353,652.358093 740.714478,651.974182 
z"/>
<path fill="#FF610E" opacity="1.000000" stroke="none" 
	d="
M545.992554,680.757019 
	C545.821533,680.742310 545.699463,680.477844 545.731445,680.118042 
	C545.937439,680.184265 545.989441,680.345764 545.992554,680.757019 
z"/>
<path fill="#FE3D04" opacity="1.000000" stroke="none" 
	d="
M640.054504,653.682617 
	C639.825073,653.773438 639.522522,653.568604 639.159302,653.086060 
	C639.392944,653.001221 639.687195,653.194092 640.054504,653.682617 
z"/>
<path fill="#FF610E" opacity="1.000000" stroke="none" 
	d="
M477.308136,679.017456 
	C477.256287,678.778809 477.480011,678.508911 477.976898,678.207031 
	C478.027954,678.445496 477.805847,678.715820 477.308136,679.017456 
z"/>
<path fill="#FE3D04" opacity="1.000000" stroke="none" 
	d="
M615.104614,747.649475 
	C614.789062,747.735229 614.488831,747.503479 614.103210,746.987061 
	C614.385193,746.912231 614.752502,747.122070 615.104614,747.649475 
z"/>
<path fill="#FE3D04" opacity="1.000000" stroke="none" 
	d="
M517.916016,779.319580 
	C518.141296,779.220154 518.469543,779.383423 518.897339,779.808838 
	C518.670898,779.908081 518.344910,779.745239 517.916016,779.319580 
z"/>
<path fill="#FE3D04" opacity="1.000000" stroke="none" 
	d="
M639.020081,753.709961 
	C638.789124,753.793274 638.488831,753.606812 638.105774,753.159790 
	C638.332214,753.079590 638.641479,753.259888 639.020081,753.709961 
z"/>
<path fill="#FE3D04" opacity="1.000000" stroke="none" 
	d="
M385.962585,779.295166 
	C386.199982,779.202942 386.504578,779.384521 386.901672,779.821594 
	C386.672668,779.907776 386.351227,779.738464 385.962585,779.295166 
z"/>
<path fill="#FE3D04" opacity="1.000000" stroke="none" 
	d="
M268.291199,780.027832 
	C268.216217,779.804016 268.413300,779.504395 268.875793,779.117798 
	C268.948547,779.337830 268.755920,779.644958 268.291199,780.027832 
z"/>
<path fill="#FC1B00" opacity="1.000000" stroke="none" 
	d="
M553.961609,676.330444 
	C554.183105,676.203979 554.476807,676.404907 554.866089,676.863525 
	C554.652344,676.966675 554.343079,676.812256 553.961609,676.330444 
z"/>
<path fill="#FE3D04" opacity="1.000000" stroke="none" 
	d="
M639.292969,779.254395 
	C639.200134,779.041748 639.365295,778.653870 639.822205,778.136963 
	C639.926270,778.364990 639.738586,778.722046 639.292969,779.254395 
z"/>
<path fill="#FF2800" opacity="1.000000" stroke="none" 
	d="
M384.965027,778.284424 
	C385.185516,778.203247 385.490082,778.392883 385.893372,778.841980 
	C385.677765,778.919434 385.363434,778.737366 384.965027,778.284424 
z"/>
<path fill="#FF2800" opacity="1.000000" stroke="none" 
	d="
M269.287109,779.049988 
	C269.198975,778.816223 269.381866,778.500305 269.827515,778.093262 
	C269.912872,778.324036 269.735504,778.645935 269.287109,779.049988 
z"/>
<path fill="#FC1B00" opacity="1.000000" stroke="none" 
	d="
M554.782471,677.398804 
	C555.167664,677.230896 555.457153,677.429138 555.860107,677.870056 
	C555.544556,677.996765 555.115662,677.880920 554.782471,677.398804 
z"/>
<path fill="#FDFCF9" opacity="1.000000" stroke="none" 
	d="
M437.581512,488.907623 
	C432.349457,501.871155 427.374847,514.947266 421.775543,527.750183 
	C419.016693,534.058350 414.378571,539.103088 407.590454,541.637634 
	C405.178192,542.538330 403.442444,542.535767 401.202209,540.394165 
	C388.815826,528.553223 387.885712,514.083618 392.773010,499.277740 
	C396.320404,488.531067 402.065460,478.472107 407.231476,468.310272 
	C410.901947,461.090210 414.982666,454.045197 419.341370,447.216400 
	C425.728149,437.210236 432.611145,427.522369 439.129120,417.598022 
	C446.784149,405.942352 454.411743,394.264191 461.791199,382.433563 
	C467.200653,373.761230 467.157623,364.315033 464.329803,354.831116 
	C461.678406,345.938873 459.658142,336.936493 460.059265,327.643738 
	C460.451111,318.565094 462.730591,310.016846 466.821808,301.671143 
	C474.580261,285.844635 485.661835,272.640930 498.153900,260.669495 
	C503.634796,255.416992 511.208008,252.416779 517.454956,247.876266 
	C524.374512,242.846893 532.267090,240.865173 540.381592,240.128860 
	C558.692078,238.467377 571.788086,250.715149 577.852356,264.234192 
	C585.139465,280.479401 584.023499,296.934540 578.924744,313.439240 
	C574.096985,329.066833 566.083618,342.949432 555.012878,354.928467 
	C543.623718,367.252136 530.501709,377.469086 513.527405,380.216766 
	C504.170380,381.731384 495.663208,384.457428 488.681152,390.489197 
	C483.783447,394.720276 479.072937,399.800873 476.052216,405.450317 
	C467.784393,420.913147 460.447662,436.874115 452.757690,452.645386 
	C451.116852,456.010559 449.541016,459.407410 447.633392,463.348694 
	C447.182953,464.604218 447.034363,465.300751 446.885803,465.997253 
	C446.885803,465.997253 446.975464,465.948425 446.652466,466.042725 
	C446.198364,466.759125 446.067291,467.381226 445.936218,468.003326 
	C445.936188,468.003326 446.001404,467.993530 445.740417,468.191040 
	C445.268311,469.255798 445.057251,470.122986 444.846191,470.990173 
	C444.846161,470.990173 444.960602,470.951660 444.642700,471.040894 
	C444.192871,471.753662 444.060944,472.377167 443.929016,473.000702 
	C443.929016,473.000702 443.995819,472.994446 443.720337,473.177673 
	C443.260193,474.238983 443.075470,475.117065 442.890778,475.995178 
	C442.890778,475.995178 442.973083,475.958923 442.627838,476.080627 
	C441.814972,477.800629 441.347382,479.398865 440.879791,480.997131 
	C440.879791,480.997131 440.972870,480.978180 440.669495,481.072388 
	C440.220245,481.777496 440.074402,482.388367 439.928589,482.999268 
	C439.928558,482.999268 439.994904,482.995483 439.715271,483.175659 
	C439.253174,484.235687 439.070709,485.115509 438.888306,485.995361 
	C438.888306,485.995361 438.971313,485.969086 438.637146,486.086792 
	C438.062500,487.105530 437.821991,488.006561 437.581512,488.907623 
z"/>
<path fill="#FE3D04" opacity="1.000000" stroke="none" 
	d="
M441.200195,480.830811 
	C441.347382,479.398865 441.814972,477.800629 442.604675,476.042114 
	C442.458069,477.476044 441.989349,479.070251 441.200195,480.830811 
z"/>
<path fill="#FE3D04" opacity="1.000000" stroke="none" 
	d="
M439.199341,485.827454 
	C439.070709,485.115509 439.253174,484.235687 439.703552,483.144592 
	C439.817810,483.842041 439.664093,484.750793 439.199341,485.827454 
z"/>
<path fill="#FE3D04" opacity="1.000000" stroke="none" 
	d="
M445.156067,470.820587 
	C445.057251,470.122986 445.268311,469.255798 445.729370,468.159973 
	C445.808197,468.837921 445.637085,469.744476 445.156067,470.820587 
z"/>
<path fill="#FE3D04" opacity="1.000000" stroke="none" 
	d="
M437.928009,488.779053 
	C437.821991,488.006561 438.062500,487.105530 438.618683,486.047394 
	C438.714417,486.810364 438.494476,487.730438 437.928009,488.779053 
z"/>
<path fill="#FE3D04" opacity="1.000000" stroke="none" 
	d="
M443.195923,475.822357 
	C443.075470,475.117065 443.260193,474.238983 443.709290,473.145996 
	C443.816132,473.837250 443.658630,474.743408 443.195923,475.822357 
z"/>
<path fill="#FE3D04" opacity="1.000000" stroke="none" 
	d="
M446.231964,467.862610 
	C446.067291,467.381226 446.198364,466.759125 446.623535,466.000671 
	C446.787628,466.483521 446.657684,467.102692 446.231964,467.862610 
z"/>
<path fill="#FE3D04" opacity="1.000000" stroke="none" 
	d="
M447.199005,465.807465 
	C447.034363,465.300751 447.182953,464.604218 447.633118,463.706543 
	C447.793884,464.209503 447.653046,464.913574 447.199005,465.807465 
z"/>
<path fill="#FE3D04" opacity="1.000000" stroke="none" 
	d="
M444.226196,472.859436 
	C444.060944,472.377167 444.192871,471.753662 444.615906,470.986755 
	C444.779175,471.468323 444.651306,472.093262 444.226196,472.859436 
z"/>
<path fill="#FE3D04" opacity="1.000000" stroke="none" 
	d="
M440.222168,482.862061 
	C440.074402,482.388367 440.220245,481.777496 440.655060,481.027161 
	C440.801270,481.500092 440.658508,482.112488 440.222168,482.862061 
z"/>

<path fill="#FF2800" opacity="1.000000" stroke="none" 
	d="
M270.784424,643.331665 
	C271.086609,661.080750 271.059906,679.080444 271.064301,697.551880 
	C270.732819,696.989685 270.057617,695.956665 270.054474,694.921753 
	C270.004181,678.283569 270.036224,661.645142 270.072144,645.006836 
	C270.073151,644.531738 270.322144,644.057129 270.784424,643.331665 
z"/>
<path fill="#FD0900" opacity="1.000000" stroke="none" 
	d="
M318.612122,642.962402 
	C303.825562,642.862732 288.866760,642.424866 273.435211,641.935303 
	C274.355255,641.591980 275.746429,641.056580 277.140961,641.047791 
	C287.199707,640.984009 297.262146,640.888062 307.316711,641.108337 
	C311.033722,641.189697 314.732697,642.094788 318.612122,642.962402 
z"/>
<path fill="#FF2800" opacity="1.000000" stroke="none" 
	d="
M271.096069,698.311951 
	C272.067932,698.265991 273.119385,698.938171 274.171448,698.939026 
	C286.267090,698.949158 298.362823,698.857483 310.982178,698.785889 
	C310.123810,699.181580 308.745148,699.920044 307.359375,699.933594 
	C296.433960,700.040771 285.506866,700.047974 274.581238,699.963867 
	C273.443024,699.955139 272.310883,699.152588 271.096069,698.311951 
z"/>

<path fill="#FF2800" opacity="1.000000" stroke="none" 
	d="
M514.848999,724.709229 
	C513.538452,724.734985 512.173462,724.043579 510.803009,724.032654 
	C502.199158,723.964294 493.594147,724.047424 484.535889,724.168884 
	C484.913605,723.848816 485.741455,723.093445 486.576691,723.085144 
	C495.172699,723.000183 503.770264,723.002258 512.366150,723.093689 
	C513.179016,723.102295 513.983643,723.883911 514.848999,724.709229 
z"/>
</svg>