<svg width="469" height="168" viewBox="0 0 469 168" fill="none" xmlns="http://www.w3.org/2000/svg">
<path d="M261.625 109.365V112H239.525V109.365H246.325L240.545 92.62H220.06L216.83 100.27C215.81 102.877 215.3 104.803 215.3 106.05C215.3 107.24 215.47 108.09 215.81 108.6C216.15 109.11 217.935 109.365 221.165 109.365V112H202.635V109.365C205.582 109.422 207.707 109.053 209.01 108.26C210.37 107.41 211.843 104.747 213.43 100.27L231.875 51.82H235.275L255.335 109.365H261.625ZM221.25 89.39H239.355L230.94 64.485L221.25 89.39ZM328.099 53.435L328.269 70.69H325.634C325.237 65.76 323.877 62.1617 321.554 59.895C319.287 57.5717 315.491 56.3533 310.164 56.24L295.629 56.07V80.72H305.999C308.492 80.72 310.277 80.0117 311.354 78.595C312.657 76.7817 313.309 74.1467 313.309 70.69H316.029V94.235H313.309C313.309 90.8917 312.629 88.285 311.269 86.415C309.909 84.545 308.152 83.61 305.999 83.61H295.629V109.365H303.534V112H280.074V109.365H288.064V56.07H280.074V53.435H328.099ZM398.605 53.435L398.775 70.69H396.225C395.885 65.93 394.61 62.4167 392.4 60.15C390.19 57.8267 386.308 56.5233 380.755 56.24L376.845 56.07V109.365H384.835V112H361.205V109.365H369.11V56.07L365.285 56.24C359.788 56.4667 355.935 57.685 353.725 59.895C351.572 62.0483 350.24 65.6467 349.73 70.69H347.265L347.435 53.435H398.605ZM462.013 91.685H464.733L463.628 112H417.303V109.365H425.293V56.07H417.303V53.435H440.848V56.07H432.858V109.365L445.863 109.11C447.393 109.11 449.291 108.685 451.558 107.835C453.824 106.985 455.496 106.022 456.573 104.945C459.973 101.772 461.786 97.3517 462.013 91.685Z" fill="white"/>
<path d="M78.96 10.08V42C78.96 44.7836 81.2164 47.04 84 47.04C86.7835 47.04 89.04 44.7836 89.04 42V10.08C89.04 7.29652 86.7835 5.04004 84 5.04004C81.2164 5.04004 78.96 7.29652 78.96 10.08Z" fill="white"/>
<path d="M116.595 17.4634L100.635 45.1069C99.2435 47.5175 100.069 50.5999 102.48 51.9917C104.891 53.3834 107.973 52.5575 109.365 50.1469L125.325 22.5034C126.717 20.0928 125.891 17.0104 123.48 15.6186C121.069 14.2269 117.987 15.0528 116.595 17.4634Z" fill="white"/>
<path d="M145.497 42.6753L117.853 58.6353C115.442 60.027 114.617 63.1094 116.008 65.52C117.4 67.9306 120.482 68.7566 122.893 67.3648L150.537 51.4048C152.947 50.0131 153.773 46.9306 152.381 44.52C150.99 42.1094 147.907 41.2835 145.497 42.6753Z" fill="white"/>
<path d="M157.92 78.96H126C123.216 78.96 120.96 81.2164 120.96 84C120.96 86.7835 123.216 89.04 126 89.04H157.92C160.703 89.04 162.96 86.7835 162.96 84C162.96 81.2164 160.703 78.96 157.92 78.96Z" fill="white"/>
<path d="M132.96 79H101.04C98.2565 79 96 81.2565 96 84.04C96 86.8235 98.2565 89.08 101.04 89.08H132.96C135.744 89.08 138 86.8235 138 84.04C138 81.2565 135.744 79 132.96 79Z" fill="white"/>
<path d="M120.96 79H89.04C86.2565 79 84 81.2565 84 84.04C84 86.8235 86.2565 89.08 89.04 89.08H120.96C123.744 89.08 126 86.8235 126 84.04C126 81.2565 123.744 79 120.96 79Z" fill="white"/>
<path d="M150.537 116.595L122.893 100.635C120.482 99.2435 117.4 100.069 116.008 102.48C114.617 104.891 115.442 107.973 117.853 109.365L145.497 125.325C147.907 126.717 150.99 125.891 152.381 123.48C153.773 121.069 152.947 117.987 150.537 116.595Z" fill="white"/>
<path d="M125.325 145.497L109.365 117.853C107.973 115.442 104.891 114.617 102.48 116.008C100.069 117.4 99.2434 120.482 100.635 122.893L116.595 150.537C117.987 152.947 121.069 153.773 123.48 152.381C125.891 150.99 126.716 147.907 125.325 145.497Z" fill="white"/>
<path d="M89.04 157.92V126C89.04 123.216 86.7836 120.96 84 120.96C81.2165 120.96 78.96 123.216 78.96 126V157.92C78.96 160.703 81.2165 162.96 84 162.96C86.7836 162.96 89.04 160.703 89.04 157.92Z" fill="white"/>
<path d="M51.4048 150.537L67.3648 122.893C68.7565 120.482 67.9306 117.4 65.52 116.008C63.1094 114.617 60.027 115.442 58.6352 117.853L42.6752 145.497C41.2835 147.907 42.1094 150.99 44.52 152.381C46.9306 153.773 50.013 152.947 51.4048 150.537Z" fill="white"/>
<path d="M22.5034 125.325L50.147 109.365C52.5575 107.973 53.3835 104.891 51.9917 102.48C50.6 100.069 47.5175 99.2434 45.107 100.635L17.4634 116.595C15.0528 117.987 14.2269 121.069 15.6187 123.48C17.0104 125.891 20.0928 126.716 22.5034 125.325Z" fill="white"/>
<path d="M10.08 89.04H42C44.7836 89.04 47.04 86.7836 47.04 84C47.04 81.2165 44.7836 78.96 42 78.96H10.08C7.29652 78.96 5.04004 81.2165 5.04004 84C5.04004 86.7836 7.29652 89.04 10.08 89.04Z" fill="white"/>
<path d="M17.4634 51.4048L45.1069 67.3648C47.5175 68.7565 50.5999 67.9306 51.9917 65.52C53.3834 63.1094 52.5575 60.027 50.1469 58.6352L22.5034 42.6752C20.0928 41.2835 17.0104 42.1094 15.6186 44.52C14.2269 46.9306 15.0528 50.013 17.4634 51.4048Z" fill="white"/>
<path d="M42.6753 22.5034L58.6353 50.147C60.027 52.5575 63.1094 53.3835 65.52 51.9917C67.9306 50.6 68.7566 47.5175 67.3648 45.107L51.4048 17.4634C50.0131 15.0528 46.9306 14.2269 44.52 15.6187C42.1094 17.0104 41.2835 20.0928 42.6753 22.5034Z" fill="white"/>
</svg>
